<svg xmlns="http://www.w3.org/2000/svg" viewBox="0 0 565 200" width="565" height="200">
  <defs>
    
    <filter id="glow-Blog" x="-20%" y="-20%" width="140%" height="140%">
      <feGaussianBlur stdDeviation="8" result="blur" />
      <feComposite in="SourceGraphic" in2="blur" operator="over" />
    </filter>
    
  </defs>
  
  <text x="60" y="100" dominant-baseline="middle" font-family="sans-serif">
    <tspan fill="#94a3b8" font-weight="300" font-size="80">uz</tspan>
    <tspan fill="#3b82f6" font-weight="900" font-size="80" filter="url(#glow-Blog)">Blog</tspan>
  </text>
  
                <g stroke="#3b82f6" stroke-width="2" stroke-linecap="round" stroke-linejoin="round" fill="none" transform="translate(405, 50) scale(4.166666666666667)">
                    
  <path d="M15.707 21.293a1 1 0 0 1-1.414 0l-1.586-1.586a1 1 0 0 1 0-1.414l5.586-5.586a1 1 0 0 1 1.414 0l1.586 1.586a1 1 0 0 1 0 1.414z" />
  <path d="m18 13-1.375-6.874a1 1 0 0 0-.746-.776L3.235 2.028a1 1 0 0 0-1.207 1.207L5.35 15.879a1 1 0 0 0 .776.746L13 18" />
  <path d="m2.3 2.3 7.286 7.286" />
  <circle cx="11" cy="11" r="2" />

                </g>
                
</svg>