<svg xmlns="http://www.w3.org/2000/svg" viewBox="0 0 512 512" width="512" height="512">
  <defs>
    <filter id="glow-Bar" x="-20%" y="-20%" width="140%" height="140%">
      <feGaussianBlur stdDeviation="8" result="blur" />
      <feComposite in="SourceGraphic" in2="blur" operator="over" />
    </filter>
  </defs>
  <rect width="512" height="512" rx="120" fill="#0f172a" />
  
    <g stroke="#f59e0b" stroke-width="2" stroke-linecap="round" stroke-linejoin="round" fill="none" opacity="0.15" transform="translate(106, 106) scale(12.5)">
        
  <path d="M17 11h1a3 3 0 0 1 0 6h-1" />
  <path d="M9 12v6" />
  <path d="M13 12v6" />
  <path d="M14 7.5c-1 0-1.44.5-3 .5s-2-.5-3-.5-1.72.5-2.5.5a2.5 2.5 0 0 1 0-5c.78 0 1.57.5 2.5.5S9.44 2 11 2s2 1.5 3 1.5 1.72-.5 2.5-.5a2.5 2.5 0 0 1 0 5c-.78 0-1.5-.5-2.5-.5Z" />
  <path d="M5 8v12a2 2 0 0 0 2 2h8a2 2 0 0 0 2-2V8" />

    </g>
    
  <text x="256" y="366" text-anchor="middle" dominant-baseline="middle" font-family="sans-serif">
    <tspan fill="#94a3b8" font-weight="300" font-size="80">uz</tspan>
    <tspan fill="#f59e0b" font-weight="900" font-size="80" filter="url(#glow-Bar)">Bar</tspan>
  </text>
</svg>