<svg xmlns="http://www.w3.org/2000/svg" viewBox="0 0 510 200" width="510" height="200">
  <defs>
    
    <filter id="glow-ETF" x="-20%" y="-20%" width="140%" height="140%">
      <feGaussianBlur stdDeviation="8" result="blur" />
      <feComposite in="SourceGraphic" in2="blur" operator="over" />
    </filter>
    
  </defs>
  
  <text x="60" y="100" dominant-baseline="middle" font-family="sans-serif">
    <tspan fill="#94a3b8" font-weight="300" font-size="80">uz</tspan>
    <tspan fill="#8b5cf6" font-weight="900" font-size="80" filter="url(#glow-ETF)">ETF</tspan>
  </text>
  
                <g stroke="#8b5cf6" stroke-width="2" stroke-linecap="round" stroke-linejoin="round" fill="none" transform="translate(350, 50) scale(4.166666666666667)">
                    
  <path d="M12.83 2.18a2 2 0 0 0-1.66 0L2.6 6.08a1 1 0 0 0 0 1.83l8.58 3.91a2 2 0 0 0 1.66 0l8.58-3.9a1 1 0 0 0 0-1.83z" />
  <path d="M2 12a1 1 0 0 0 .58.91l8.6 3.91a2 2 0 0 0 1.65 0l8.58-3.9A1 1 0 0 0 22 12" />
  <path d="M2 17a1 1 0 0 0 .58.91l8.6 3.91a2 2 0 0 0 1.65 0l8.58-3.9A1 1 0 0 0 22 17" />

                </g>
                
</svg>